<?xml version="1.0" encoding="UTF-8"?>
<svg width="34px" height="33px" viewBox="0 0 34 33" version="1.1" xmlns="http://www.w3.org/2000/svg" xmlns:xlink="http://www.w3.org/1999/xlink">
    <!-- Generator: Sketch 48.1 (47250) - http://www.bohemiancoding.com/sketch -->
    <title>youtube</title>
    <desc>Created with Sketch.</desc>
    <defs>
        <polygon id="path-1" points="0.0909086538 0.286769464 32.472476 0.286769464 32.472476 33.1440753 0.0909086538 33.1440753 0.0909086538 0.286769464"></polygon>
    </defs>
    <g id="Home-1-Final" stroke="none" stroke-width="1" fill="none" fill-rule="evenodd" transform="translate(-1207.000000, -3604.000000)" opacity="0.245335821">
        <g id="Group-2" transform="translate(1109.000000, 3603.000000)">
            <g id="youtube" transform="translate(98.687943, 0.813953)">
                <g id="Group-13" stroke-width="1" transform="translate(0.000000, 0.037769)">
                    <mask id="mask-2" fill="white">
                        <use xlink:href="#path-1"></use>
                    </mask>
                    <g id="Clip-12"></g>
                    <path d="M16.2812163,33.1440753 C25.2235817,33.1440753 32.472476,25.7883585 32.472476,16.7151809 C32.472476,7.64200325 25.2235817,0.286286489 16.2812163,0.286286489 C7.33885096,0.286286489 0.0909086538,7.64200325 0.0909086538,16.7151809 C0.0909086538,25.7883585 7.33885096,33.1440753 16.2812163,33.1440753" id="Fill-11" fill="#4A4A4A" mask="url(#mask-2)"></path>
                </g>
                <path d="M24.376751,19.6901167 L24.376751,13.8161688 C24.376751,13.8161688 24.376751,10.9849664 21.5857125,10.9849664 L10.9755779,10.9849664 C10.9755779,10.9849664 8.18644327,10.9849664 8.18644327,13.8161688 L8.18644327,19.6901167 C8.18644327,19.6901167 8.18644327,22.5213191 10.9755779,22.5213191 L21.5857125,22.5213191 C21.5857125,22.5213191 24.376751,22.5213191 24.376751,19.6901167 Z M19.4248471,16.7613533 L14.1235875,19.9200131 L14.1235875,13.6017277 L19.4248471,16.7613533 Z" id="Fill-14" fill="#FEFEFE"></path>
            </g>
        </g>
    </g>
</svg>