<?xml version="1.0" encoding="UTF-8"?>
<svg width="9px" height="17px" viewBox="0 0 9 17" version="1.1" xmlns="http://www.w3.org/2000/svg" xmlns:xlink="http://www.w3.org/1999/xlink">
    <!-- Generator: Sketch 48.2 (47327) - http://www.bohemiancoding.com/sketch -->
    <title>facebook copy</title>
    <desc>Created with Sketch.</desc>
    <defs></defs>
    <g id="Main-Nav" stroke="none" stroke-width="1" fill="none" fill-rule="evenodd" transform="translate(-1161.000000, -28.000000)">
        <g id="Group-8" fill="#9B9B9B">
            <g id="Group-6" transform="translate(1025.000000, 26.000000)">
                <g id="Group" transform="translate(131.000000, 1.000000)">
                    <g id="facebook-copy">
                        <path d="M5.7,6.71231309 L7.32797612,6.71231309 L7.32797612,5.05780469 C7.32797612,4.32881416 7.34557085,3.20289651 7.85304009,2.50682188 C8.38643841,1.76911831 9.11986109,1.26666667 10.3801998,1.26666667 C12.4341538,1.26666667 13.3,1.5735591 13.3,1.5735591 L12.892543,4.09549846 C12.892543,4.09549846 12.2137565,3.8902581 11.5812721,3.8902581 C10.9478616,3.8902581 10.3801998,4.12744625 10.3801998,4.78963686 L10.3801998,6.71231309 L12.9768125,6.71231309 L12.7962349,9.17519744 L10.3801998,9.17519744 L10.3801998,17.7333333 L7.32797612,17.7333333 L7.32797612,9.17519744 L5.7,9.17519744 L5.7,6.71231309 Z" id="Fill-9"></path>
                    </g>
                </g>
            </g>
        </g>
    </g>
</svg>