<?xml version="1.0" encoding="UTF-8"?>
<svg width="18px" height="18px" viewBox="0 0 18 18" version="1.1" xmlns="http://www.w3.org/2000/svg" xmlns:xlink="http://www.w3.org/1999/xlink">
    <!-- Generator: Sketch 48.2 (47327) - http://www.bohemiancoding.com/sketch -->
    <title>Shape</title>
    <desc>Created with Sketch.</desc>
    <defs></defs>
    <g id="Main-Nav-Search" stroke="none" stroke-width="1" fill="none" fill-rule="evenodd" transform="translate(-1319.000000, -27.000000)">
        <path d="M1326.42541,27 C1322.33779,27 1319,30.3378069 1319,34.4254142 C1319,38.5129922 1322.33779,41.8508284 1326.42541,41.8508284 C1328.0662,41.8508284 1329.58841,41.3175712 1330.82017,40.4093305 L1335.08137,44.6705057 C1335.52068,45.1097977 1336.23114,45.1098652 1336.6705,44.6705057 C1337.10983,44.2311687 1337.10983,43.5206915 1336.6705,43.0813545 L1332.40935,38.8201793 C1333.31756,37.5884156 1333.85082,36.0661832 1333.85082,34.4254142 C1333.85082,30.3378024 1330.51301,27 1326.42541,27 L1326.42541,27 Z M1326.42541,29.2501244 C1329.29691,29.2501244 1331.6007,31.5538805 1331.6007,34.4254106 C1331.6007,37.2969068 1329.29691,39.6006967 1326.42541,39.6006967 C1323.55389,39.6006967 1321.25012,37.2969068 1321.25012,34.4254106 C1321.25012,31.553876 1323.55389,29.2501244 1326.42541,29.2501244 Z" id="Shape" fill="#9B9B9B" fill-rule="nonzero"></path>
    </g>
</svg>