<?xml version="1.0" encoding="UTF-8"?>
<svg width="17px" height="17px" viewBox="0 0 17 17" version="1.1" xmlns="http://www.w3.org/2000/svg" xmlns:xlink="http://www.w3.org/1999/xlink">
    <!-- Generator: Sketch 48.2 (47327) - http://www.bohemiancoding.com/sketch -->
    <title>instagram copy</title>
    <desc>Created with Sketch.</desc>
    <defs>
        <polygon id="path-1" points="0 16.4647063 16.4614718 16.4647063 16.4614718 0.00519484127 0 0.00519484127"></polygon>
    </defs>
    <g id="Main-Nav" stroke="none" stroke-width="1" fill="none" fill-rule="evenodd" transform="translate(-1236.000000, -28.000000)">
        <g id="Group-8">
            <g id="Group-6" transform="translate(1025.000000, 26.000000)">
                <g id="Group" transform="translate(131.000000, 1.000000)">
                    <g id="instagram-copy" transform="translate(79.166667, 0.000000)">
                        <g id="instagram-new-2016-seeklogo.com" transform="translate(1.266667, 1.266667)">
                            <g id="Group-3">
                                <mask id="mask-2" fill="white">
                                    <use xlink:href="#path-1"></use>
                                </mask>
                                <g id="Clip-2"></g>
                                <path d="M8.23075225,0.00519484127 C5.99540225,0.00519484127 5.71510952,0.014669709 4.83721402,0.0547255291 C3.96114815,0.0946833333 3.36282659,0.233833201 2.83929114,0.437314153 C2.29804749,0.647623545 1.83903915,0.929059788 1.38143571,1.38663056 C0.923864947,1.84423399 0.642428704,2.30324233 0.432119312,2.84448598 C0.22863836,3.36802143 0.0894884921,3.96634299 0.0495306878,4.84240886 C0.00947486772,5.72030437 0,6.00059709 0,8.23594709 C0,10.4712644 0.00947486772,10.7515571 0.0495306878,11.6294526 C0.0894884921,12.5055185 0.22863836,13.1038401 0.432119312,13.6273755 C0.642428704,14.1686192 0.923864947,14.6276275 1.38143571,15.085231 C1.83903915,15.5428017 2.29804749,15.824238 2.83929114,16.03458 C3.36282659,16.2380283 3.96114815,16.3771782 4.83721402,16.417136 C5.71510952,16.4571918 5.99540225,16.4666667 8.23075225,16.4666667 C10.4660696,16.4666667 10.7463623,16.4571918 11.6242578,16.417136 C12.5003237,16.3771782 13.0986452,16.2380283 13.6221807,16.03458 C14.1634243,15.824238 14.6224327,15.5428017 15.0800361,15.085231 C15.5376069,14.6276275 15.8190431,14.1686192 16.0293852,13.6273755 C16.2328335,13.1038401 16.3719833,12.5055185 16.4119411,11.6294526 C16.451997,10.7515571 16.4614718,10.4712644 16.4614718,8.23594709 C16.4614718,6.00059709 16.451997,5.72030437 16.4119411,4.84240886 C16.3719833,3.96634299 16.2328335,3.36802143 16.0293852,2.84448598 C15.8190431,2.30324233 15.5376069,1.84423399 15.0800361,1.38663056 C14.6224327,0.929059788 14.1634243,0.647623545 13.6221807,0.437314153 C13.0986452,0.233833201 12.5003237,0.0946833333 11.6242578,0.0547255291 C10.7463623,0.014669709 10.4660696,0.00519484127 8.23075225,0.00519484127 Z M8.23075225,1.48820767 C10.4284315,1.48820767 10.6887616,1.49660437 11.5566595,1.53620278 C12.3591481,1.57279537 12.7949594,1.70688108 13.0849884,1.81959934 C13.4691779,1.96891019 13.743361,2.1472664 14.0313643,2.43530238 C14.3194003,2.72330569 14.4977565,2.99748876 14.6470673,3.38167831 C14.7597856,3.67170728 14.8938713,4.10751852 14.9304639,4.91000714 C14.9700623,5.77790503 14.978459,6.03823519 14.978459,8.23594709 C14.978459,10.4336263 14.9700623,10.6939565 14.9304639,11.5618544 C14.8938713,12.364343 14.7597856,12.8001542 14.6470673,13.0901832 C14.4977565,13.4743728 14.3194003,13.7485558 14.0313643,14.0365591 C13.743361,14.3245951 13.4691779,14.5029513 13.0849884,14.6522622 C12.7949594,14.7649804 12.3591481,14.8990661 11.5566595,14.9356587 C10.6888923,14.9752571 10.4285948,14.9836538 8.23075225,14.9836538 C6.03287698,14.9836538 5.77261217,14.9752571 4.9048123,14.9356587 C4.10232368,14.8990661 3.66651243,14.7649804 3.37648347,14.6522622 C2.99229392,14.5029513 2.71811085,14.3245951 2.43010754,14.0365591 C2.14210423,13.7485558 1.96371534,13.4743728 1.8144045,13.0901832 C1.70168624,12.8001542 1.56760053,12.364343 1.53100794,11.5618544 C1.49140952,10.6939565 1.48301283,10.4336263 1.48301283,8.23594709 C1.48301283,6.03823519 1.49140952,5.77790503 1.53100794,4.91000714 C1.56760053,4.10751852 1.70168624,3.67170728 1.8144045,3.38167831 C1.96371534,2.99748876 2.14207156,2.72330569 2.43010754,2.43530238 C2.71811085,2.1472664 2.99229392,1.96891019 3.37648347,1.81959934 C3.66651243,1.70688108 4.10232368,1.57279537 4.9048123,1.53620278 C5.77271019,1.49660437 6.03304034,1.48820767 8.23075225,1.48820767 Z" id="Fill-1" fill="#9B9B9B" mask="url(#mask-2)"></path>
                            </g>
                            <path d="M8.23334949,10.9466684 C6.73479278,10.9466684 5.5199983,9.73187389 5.5199983,8.23334949 C5.5199983,6.73479278 6.73479278,5.5199983 8.23334949,5.5199983 C9.73187389,5.5199983 10.9466684,6.73479278 10.9466684,8.23334949 C10.9466684,9.73187389 9.73187389,10.9466684 8.23334949,10.9466684 Z M8.23334949,4.05333333 C5.92476823,4.05333333 4.05333333,5.92476823 4.05333333,8.23334949 C4.05333333,10.5418984 5.92476823,12.4133333 8.23334949,12.4133333 C10.5418984,12.4133333 12.4133333,10.5418984 12.4133333,8.23334949 C12.4133333,5.92476823 10.5418984,4.05333333 8.23334949,4.05333333 Z" id="Fill-4" fill="#9B9B9B"></path>
                            <path d="M13.68,3.80001676 C13.68,4.35967053 13.2263037,4.81333333 12.6666499,4.81333333 C12.1070297,4.81333333 11.6533333,4.35967053 11.6533333,3.80001676 C11.6533333,3.24036299 12.1070297,2.78666667 12.6666499,2.78666667 C13.2263037,2.78666667 13.68,3.24036299 13.68,3.80001676" id="Fill-5" fill="#9B9B9B"></path>
                        </g>
                    </g>
                </g>
            </g>
        </g>
    </g>
</svg>