<?xml version="1.0" encoding="UTF-8"?>
<svg width="17px" height="14px" viewBox="0 0 17 14" version="1.1" xmlns="http://www.w3.org/2000/svg" xmlns:xlink="http://www.w3.org/1999/xlink">
    <!-- Generator: Sketch 48.2 (47327) - http://www.bohemiancoding.com/sketch -->
    <title>twitter copy</title>
    <desc>Created with Sketch.</desc>
    <defs></defs>
    <g id="Main-Nav" stroke="none" stroke-width="1" fill="none" fill-rule="evenodd" transform="translate(-1209.000000, -30.000000)">
        <g id="Group-8" fill="#9B9B9B">
            <g id="Group-6" transform="translate(1025.000000, 26.000000)">
                <g id="Group" transform="translate(131.000000, 1.000000)">
                    <g id="twitter-copy" transform="translate(51.722222, 0.000000)">
                        <path d="M17.7333333,4.74103472 C17.1282894,5.00807213 16.4758858,5.18865858 15.79352,5.26934614 C16.4913502,4.85438153 17.0268044,4.19639366 17.2781006,3.41257162 C16.625697,3.79775868 15.9027372,4.07632289 15.1324177,4.22617122 C14.5177085,3.57394675 13.6391383,3.16666667 12.6668154,3.16666667 C10.8023909,3.16666667 9.28978106,4.66995281 9.28978106,6.52384564 C9.28978106,6.78704078 9.31781026,7.0425514 9.37676821,7.28845635 C6.56901645,7.14821368 4.08021757,5.81302663 2.41296394,3.78046849 C2.12204027,4.27804179 1.95579816,4.85438153 1.95579816,5.46914392 C1.95579816,6.63335019 2.55214337,7.66115605 3.45874274,8.26343108 C2.90492458,8.24710145 2.38396823,8.09437142 1.92776897,7.8446242 L1.92776897,7.88592855 C1.92776897,9.51312774 3.0924302,10.8704078 4.63886835,11.177789 C4.35471034,11.2565554 4.05702099,11.2959387 3.74773336,11.2959387 C3.5302655,11.2959387 3.31763026,11.2757668 3.1127272,11.2363836 C3.54186379,12.5696495 4.78964606,13.5417425 6.26842754,13.5667172 C5.1114985,14.4677283 3.65494708,15.0046849 2.07274755,15.0046849 C1.80018783,15.0046849 1.53052768,14.9893158 1.26666667,14.9585777 C2.76187905,15.9095383 4.53738334,16.4666667 6.4453014,16.4666667 C12.6600497,16.4666667 16.057381,11.3506909 16.057381,6.91383552 C16.057381,6.76782946 16.0544814,6.62182339 16.0477158,6.47965959 C16.7078515,6.00513987 17.2819667,5.41439164 17.7333333,4.74103472" id="Fill-4"></path>
                    </g>
                </g>
            </g>
        </g>
    </g>
</svg>