<?xml version="1.0" encoding="UTF-8"?>
<svg width="18px" height="17px" viewBox="0 0 18 17" version="1.1" xmlns="http://www.w3.org/2000/svg" xmlns:xlink="http://www.w3.org/1999/xlink">
    <!-- Generator: Sketch 48.2 (47327) - http://www.bohemiancoding.com/sketch -->
    <title>linkedin copy</title>
    <desc>Created with Sketch.</desc>
    <defs></defs>
    <g id="Main-Nav" stroke="none" stroke-width="1" fill="none" fill-rule="evenodd" transform="translate(-1181.000000, -28.000000)">
        <g id="Group-8" fill="#9B9B9B">
            <g id="Group-6" transform="translate(1025.000000, 26.000000)">
                <g id="Group" transform="translate(131.000000, 1.000000)">
                    <g id="linkedin-copy" transform="translate(24.277778, 0.000000)">
                        <path d="M17.7333333,17.1 L14.0939754,17.1 L14.0939754,11.7565922 C14.0939754,10.3579625 13.5246903,9.40315682 12.2728442,9.40315682 C11.3153222,9.40315682 10.7828277,10.0474803 10.5349757,10.6684446 C10.4420312,10.89133 10.4565538,11.2008388 10.4565538,11.5122943 L10.4565538,17.1 L6.85108184,17.1 C6.85108184,17.1 6.89755409,7.63467375 6.85108184,6.77427803 L10.4565538,6.77427803 L10.4565538,8.39481975 C10.6695516,7.68625856 11.8216761,6.6750016 13.6602344,6.6750016 C15.9412473,6.6750016 17.7333333,8.16025485 17.7333333,11.3585132 L17.7333333,17.1 Z M3.20494669,5.48173785 L3.18171057,5.48173785 C2.01990436,5.48173785 1.26666667,4.69239291 1.26666667,3.69281552 C1.26666667,2.67279887 2.04217231,1.9 3.22721464,1.9 C4.41128881,1.9 5.13935403,2.67085228 5.16259015,3.68989563 C5.16259015,4.69044631 4.41128881,5.48173785 3.20494669,5.48173785 Z M1.68201239,17.1 L4.89150204,17.1 L4.89150204,6.77427803 L1.68201239,6.77427803 L1.68201239,17.1 Z" id="Fill-19"></path>
                    </g>
                </g>
            </g>
        </g>
    </g>
</svg>