<?xml version="1.0" encoding="UTF-8"?>
<svg width="33px" height="33px" viewBox="0 0 33 33" version="1.1" xmlns="http://www.w3.org/2000/svg" xmlns:xlink="http://www.w3.org/1999/xlink">
    <!-- Generator: Sketch 48.1 (47250) - http://www.bohemiancoding.com/sketch -->
    <title>facebook</title>
    <desc>Created with Sketch.</desc>
    <defs>
        <polygon id="path-1" points="0.0458826923 0.283687666 32.4264981 0.283687666 32.4264981 32.7878889 0.0458826923 32.7878889 0.0458826923 0.283687666"></polygon>
    </defs>
    <g id="Home-1-Final" stroke="none" stroke-width="1" fill="none" fill-rule="evenodd" transform="translate(-1158.000000, -3604.000000)" opacity="0.245335821">
        <g id="Group-2" transform="translate(1109.000000, 3603.000000)">
            <g id="facebook" transform="translate(48.936170, 0.813953)">
                <mask id="mask-2" fill="white">
                    <use xlink:href="#path-1"></use>
                </mask>
                <g id="Clip-7"></g>
                <path d="M16.2361904,32.7878889 C25.1776038,32.7878889 32.4264981,25.5121767 32.4264981,16.5355494 C32.4264981,7.56083322 25.1776038,0.283209881 16.2361904,0.283209881 C7.29477692,0.283209881 0.0458826923,7.56083322 0.0458826923,16.5355494 C0.0458826923,25.5121767 7.29477692,32.7878889 16.2361904,32.7878889" id="Fill-6" fill="#4A4A4A" fill-rule="evenodd" mask="url(#mask-2)"></path>
                <path d="M12.33045,13.7837936 L14.0039308,13.7837936 L14.0039308,12.150724 C14.0039308,11.4311796 14.0220173,10.3198513 14.5436712,9.63279629 C15.0919788,8.90465172 15.8459019,8.40871074 17.1414692,8.40871074 C19.2528346,8.40871074 20.1428827,8.71162653 20.1428827,8.71162653 L19.7240365,11.2008871 C19.7240365,11.2008871 19.0262769,10.9983062 18.3761135,10.9983062 C17.7249981,10.9983062 17.1414692,11.232421 17.1414692,11.886031 L17.1414692,13.7837936 L19.8106615,13.7837936 L19.6250365,16.2147645 L17.1414692,16.2147645 L17.1414692,24.6620058 L14.0039308,24.6620058 L14.0039308,16.2147645 L12.33045,16.2147645 L12.33045,13.7837936 Z" id="Fill-9" fill="#FEFEFE" fill-rule="evenodd" mask="url(#mask-2)"></path>
            </g>
        </g>
    </g>
</svg>