<?xml version="1.0" encoding="UTF-8"?>
<svg width="33px" height="33px" viewBox="0 0 33 33" version="1.1" xmlns="http://www.w3.org/2000/svg" xmlns:xlink="http://www.w3.org/1999/xlink">
    <!-- Generator: Sketch 48.1 (47250) - http://www.bohemiancoding.com/sketch -->
    <title>twitter</title>
    <desc>Created with Sketch.</desc>
    <defs>
        <polygon id="path-1" points="0.000285576923 0.283687666 32.380901 0.283687666 32.380901 32.7878889 0.000285576923 32.7878889"></polygon>
    </defs>
    <g id="Home-1-Final" stroke="none" stroke-width="1" fill="none" fill-rule="evenodd" transform="translate(-1109.000000, -3604.000000)" opacity="0.245335821">
        <g id="Group-2" transform="translate(1109.000000, 3603.000000)">
            <g id="twitter" transform="translate(0.000000, 0.813953)">
                <mask id="mask-2" fill="white">
                    <use xlink:href="#path-1"></use>
                </mask>
                <g id="Clip-2"></g>
                <path d="M16.1905933,32.7878889 C25.1320067,32.7878889 32.380901,25.5121767 32.380901,16.5355494 C32.380901,7.56083322 25.1320067,0.283209881 16.1905933,0.283209881 C7.24822788,0.283209881 0.000285576923,7.56083322 0.000285576923,16.5355494 C0.000285576923,25.5121767 7.24822788,32.7878889 16.1905933,32.7878889" id="Fill-1" fill="#4A4A4A" fill-rule="evenodd" mask="url(#mask-2)"></path>
                <path d="M24.3130673,12.2781971 C23.7171635,12.5438456 23.0746154,12.7234928 22.4025577,12.8037607 C23.0898462,12.3909544 23.6172115,11.7363887 23.8647115,10.9566434 C23.2221635,11.3398271 22.510125,11.6169424 21.7514423,11.7660114 C21.1460192,11.1171792 20.2807212,10.7120174 19.3230865,10.7120174 C17.4868269,10.7120174 15.9970673,12.2074849 15.9970673,14.0517355 C15.9970673,14.3135618 16.0246731,14.5677435 16.0827404,14.8123695 C13.3174038,14.6728562 10.8662019,13.3446135 9.22413462,11.3226268 C8.93760577,11.8176122 8.773875,12.3909544 8.773875,13.0025194 C8.773875,14.1606706 9.36121154,15.1831308 10.2541154,15.7822733 C9.70866346,15.7660286 9.19557692,15.614093 8.74626923,15.3656447 L8.74626923,15.4067342 C8.74626923,17.0254703 9.89333654,18.3756911 11.4164135,18.6814736 C11.1365481,18.7598304 10.8433558,18.7990088 10.5387404,18.7990088 C10.3245577,18.7990088 10.1151346,18.7789418 9.91332692,18.7397634 C10.3359808,20.066095 11.5649135,21.0331321 13.0213558,21.0579769 C11.8819038,21.9543019 10.4473558,22.4884656 8.88905769,22.4884656 C8.62061538,22.4884656 8.35502885,22.4731765 8.09515385,22.4425983 C9.56777885,23.3886129 11.3164615,23.9428436 13.1955577,23.9428436 C19.3164231,23.9428436 22.6624327,18.8534763 22.6624327,14.4396971 C22.6624327,14.2944504 22.6595769,14.1492037 22.6529135,14.0077793 C23.3030769,13.5357276 23.8685192,12.9480519 24.3130673,12.2781971" id="Fill-4" fill="#FEFEFE" fill-rule="evenodd" mask="url(#mask-2)"></path>
            </g>
        </g>
    </g>
</svg>