<?xml version="1.0" encoding="UTF-8"?>
<svg width="34px" height="33px" viewBox="0 0 34 33" version="1.1" xmlns="http://www.w3.org/2000/svg" xmlns:xlink="http://www.w3.org/1999/xlink">
    <!-- Generator: Sketch 48.1 (47250) - http://www.bohemiancoding.com/sketch -->
    <title>instagram</title>
    <desc>Created with Sketch.</desc>
    <defs>
        <polygon id="path-1" points="32.5824231 0.305665782 32.5824231 32.8103448 16.3924486 32.8103448 0.202474038 32.8103448 0.202474038 0.305665782 32.5824231 0.305665782"></polygon>
        <polygon id="path-3" points="0 16.4980357 16.4947946 16.4980357 16.4947946 0.00520535714 0 0.00520535714"></polygon>
    </defs>
    <g id="Home-1-Final" stroke="none" stroke-width="1" fill="none" fill-rule="evenodd" transform="translate(-1256.000000, -3603.000000)" opacity="0.245335821">
        <g id="Group-2" transform="translate(1109.000000, 3603.000000)">
            <g id="instagram" transform="translate(147.624113, 0.000000)">
                <mask id="mask-2" fill="white">
                    <use xlink:href="#path-1"></use>
                </mask>
                <g id="Clip-22"></g>
                <path d="M16.3927817,32.8103448 C25.3351471,32.8103448 32.5830894,25.5336771 32.5830894,16.5580053 C32.5830894,7.58233355 25.3351471,0.305665782 16.3927817,0.305665782 C7.44946442,0.305665782 0.202474038,7.58233355 0.202474038,16.5580053 C0.202474038,25.5336771 7.44946442,32.8103448 16.3927817,32.8103448" id="Fill-21" fill="#4A4A4A" fill-rule="evenodd" mask="url(#mask-2)"></path>
                <g id="instagram-new-2016-seeklogo.com-copy" stroke-width="1" fill-rule="evenodd" mask="url(#mask-2)">
                    <g transform="translate(8.250000, 8.250000)">
                        <g id="Group-3" stroke-width="1" fill="none">
                            <mask id="mask-4" fill="white">
                                <use xlink:href="#path-3"></use>
                            </mask>
                            <g id="Clip-2"></g>
                            <path d="M8.24741369,0.00520535714 C6.00753869,0.00520535714 5.72667857,0.0146994048 4.84700595,0.0548363095 C3.96916667,0.094875 3.36963393,0.234306548 2.84503869,0.438199405 C2.3026994,0.648934524 1.8427619,0.930940476 1.38423214,1.3894375 C0.925735119,1.84796726 0.643729167,2.30790476 0.432994048,2.85024405 C0.22910119,3.37483929 0.0896696429,3.97437202 0.0496309524,4.85221131 C0.00949404762,5.73188393 0,6.01274405 0,8.25261905 C0,10.4924613 0.00949404762,10.7733214 0.0496309524,11.652994 C0.0896696429,12.5308333 0.22910119,13.1303661 0.432994048,13.6549613 C0.643729167,14.1973006 0.925735119,14.6572381 1.38423214,15.1157679 C1.8427619,15.5742649 2.3026994,15.8562708 2.84503869,16.0670387 C3.36963393,16.2708988 3.96916667,16.4103304 4.84700595,16.450369 C5.72667857,16.490506 6.00753869,16.5 8.24741369,16.5 C10.487256,16.5 10.7681161,16.490506 11.6477887,16.450369 C12.525628,16.4103304 13.1251607,16.2708988 13.649756,16.0670387 C14.1920952,15.8562708 14.6520327,15.5742649 15.1105625,15.1157679 C15.5690595,14.6572381 15.8510655,14.1973006 16.0618333,13.6549613 C16.2656935,13.1303661 16.405125,12.5308333 16.4451637,11.652994 C16.4853006,10.7733214 16.4947946,10.4924613 16.4947946,8.25261905 C16.4947946,6.01274405 16.4853006,5.73188393 16.4451637,4.85221131 C16.405125,3.97437202 16.2656935,3.37483929 16.0618333,2.85024405 C15.8510655,2.30790476 15.5690595,1.84796726 15.1105625,1.3894375 C14.6520327,0.930940476 14.1920952,0.648934524 13.649756,0.438199405 C13.1251607,0.234306548 12.525628,0.094875 11.6477887,0.0548363095 C10.7681161,0.0146994048 10.487256,0.00520535714 8.24741369,0.00520535714 Z M8.24741369,1.49122024 C10.4495417,1.49122024 10.7103988,1.49963393 11.5800536,1.5393125 C12.3841667,1.57597917 12.8208601,1.71033631 13.1114762,1.82328274 C13.4964435,1.97289583 13.7711815,2.1516131 14.0597679,2.44023214 C14.3483869,2.72881845 14.5271042,3.00355655 14.6767173,3.38852381 C14.7896637,3.67913988 14.9240208,4.11583333 14.9606875,4.91994643 C15.0003661,5.78960119 15.0087798,6.05045833 15.0087798,8.25261905 C15.0087798,10.454747 15.0003661,10.7156042 14.9606875,11.5852589 C14.9240208,12.389372 14.7896637,12.8260655 14.6767173,13.1166815 C14.5271042,13.5016488 14.3483869,13.7763869 14.0597679,14.0649732 C13.7711815,14.3535923 13.4964435,14.5323095 13.1114762,14.6819226 C12.8208601,14.794869 12.3841667,14.9292262 11.5800536,14.9658929 C10.7105298,15.0055714 10.4497054,15.0139851 8.24741369,15.0139851 C6.04508929,15.0139851 5.78429762,15.0055714 4.91474107,14.9658929 C4.11062798,14.9292262 3.67393452,14.794869 3.38331845,14.6819226 C2.99835119,14.5323095 2.7236131,14.3535923 2.43502679,14.0649732 C2.14644048,13.7763869 1.96769048,13.5016488 1.81807738,13.1166815 C1.70513095,12.8260655 1.57077381,12.389372 1.53410714,11.5852589 C1.49442857,10.7156042 1.48601488,10.454747 1.48601488,8.25261905 C1.48601488,6.05045833 1.49442857,5.78960119 1.53410714,4.91994643 C1.57077381,4.11583333 1.70513095,3.67913988 1.81807738,3.38852381 C1.96769048,3.00355655 2.14640774,2.72881845 2.43502679,2.44023214 C2.7236131,2.1516131 2.99835119,1.97289583 3.38331845,1.82328274 C3.67393452,1.71033631 4.11062798,1.57597917 4.91474107,1.5393125 C5.78439583,1.49963393 6.04525298,1.49122024 8.24741369,1.49122024 Z" id="Fill-1" fill="#FFFFFF" mask="url(#mask-4)"></path>
                        </g>
                        <path d="M8.25001619,10.9688276 C6.74842596,10.9688276 5.53117239,9.75157404 5.53117239,8.25001619 C5.53117239,6.74842596 6.74842596,5.53117239 8.25001619,5.53117239 C9.75157404,5.53117239 10.9688276,6.74842596 10.9688276,8.25001619 C10.9688276,9.75157404 9.75157404,10.9688276 8.25001619,10.9688276 Z M8.25001619,4.06153846 C5.93676169,4.06153846 4.06153846,5.93676169 4.06153846,8.25001619 C4.06153846,10.5632383 5.93676169,12.4384615 8.25001619,12.4384615 C10.5632383,12.4384615 12.4384615,10.5632383 12.4384615,8.25001619 C12.4384615,5.93676169 10.5632383,4.06153846 8.25001619,4.06153846 Z" id="Fill-4" fill="#FFFFFF"></path>
                        <path d="M13.7076923,3.8077091 C13.7076923,4.36849578 13.2530776,4.82307692 12.6922909,4.82307692 C12.1315378,4.82307692 11.6769231,4.36849578 11.6769231,3.8077091 C11.6769231,3.24692243 12.1315378,2.79230769 12.6922909,2.79230769 C13.2530776,2.79230769 13.7076923,3.24692243 13.7076923,3.8077091" id="Fill-5" fill="#FFFFFF"></path>
                    </g>
                </g>
            </g>
        </g>
    </g>
</svg>