<?xml version="1.0" encoding="UTF-8"?>
<svg width="33px" height="33px" viewBox="0 0 33 33" version="1.1" xmlns="http://www.w3.org/2000/svg" xmlns:xlink="http://www.w3.org/1999/xlink">
    <!-- Generator: Sketch 48.1 (47250) - http://www.bohemiancoding.com/sketch -->
    <title>linkedin</title>
    <desc>Created with Sketch.</desc>
    <defs>
        <polygon id="path-1" points="1.29009634e-20 0.305665782 1.29009634e-20 32.8103448 16.1902125 32.8103448 32.380425 32.8103448 32.380425 0.305665782"></polygon>
    </defs>
    <g id="Home-1-Final" stroke="none" stroke-width="1" fill="none" fill-rule="evenodd" transform="translate(-1305.000000, -3603.000000)" opacity="0.245335821">
        <g id="Group-2" transform="translate(1109.000000, 3603.000000)">
            <g id="linkedin" transform="translate(196.560284, 0.000000)">
                <mask id="mask-2" fill="white">
                    <use xlink:href="#path-1"></use>
                </mask>
                <g id="Clip-17"></g>
                <path d="M16.1901173,32.8103448 C25.1334346,32.8103448 32.380425,25.5336771 32.380425,16.5580053 C32.380425,7.58233355 25.1334346,0.305665782 16.1901173,0.305665782 C7.24775192,0.305665782 -0.000190384615,7.58233355 -0.000190384615,16.5580053 C-0.000190384615,25.5336771 7.24775192,32.8103448 16.1901173,32.8103448" id="Fill-16" fill="#4A4A4A" fill-rule="evenodd" mask="url(#mask-2)"></path>
                <path d="M24.285176,23.355359 L20.7068971,23.355359 L20.7068971,18.1092781 C20.7068971,16.7361236 20.1471663,15.7987092 18.9163298,15.7987092 C17.9748779,15.7987092 17.4513202,16.4312967 17.2076279,17.0409505 C17.1162433,17.2597761 17.1305221,17.5636475 17.1305221,17.86943 L17.1305221,23.355359 L13.5855606,23.355359 C13.5855606,23.355359 13.6312529,14.0624379 13.5855606,13.2177138 L17.1305221,13.2177138 L17.1305221,14.8087383 C17.3399452,14.1130832 18.4727337,13.1202456 20.2804356,13.1202456 C22.5231663,13.1202456 24.285176,14.5784459 24.285176,17.7184499 L24.285176,23.355359 Z M10.0006183,11.9487164 L9.97777212,11.9487164 C8.83546442,11.9487164 8.09486827,11.1737489 8.09486827,10.1923782 C8.09486827,9.19094058 8.85735865,8.43221777 10.0225125,8.43221777 C11.1867144,8.43221777 11.9025606,9.18902944 11.9254067,10.1895115 C11.9254067,11.1718378 11.1867144,11.9487164 10.0006183,11.9487164 Z M8.50324327,23.355359 L11.6588683,23.355359 L11.6588683,13.2177138 L8.50324327,13.2177138 L8.50324327,23.355359 Z" id="Fill-19" fill="#FEFEFE" fill-rule="evenodd" mask="url(#mask-2)"></path>
            </g>
        </g>
    </g>
</svg>