<?xml version="1.0" encoding="UTF-8"?>
<svg width="209px" height="56px" viewBox="0 0 209 56" version="1.1" xmlns="http://www.w3.org/2000/svg" xmlns:xlink="http://www.w3.org/1999/xlink">
    <!-- Generator: Sketch 48.2 (47327) - http://www.bohemiancoding.com/sketch -->
    <title>Group 5</title>
    <desc>Created with Sketch.</desc>
    <defs></defs>
    <g id="Main-Nav" stroke="none" stroke-width="1" fill="none" fill-rule="evenodd" transform="translate(-100.000000, -33.000000)">
        <g id="Group-8">
            <g id="Group-5" transform="translate(100.000000, 33.000000)">
                <g id="Page-1">
                    <path d="M21.3154427,0 C21.3154427,0 10.0006428,0 10.0006428,11.2990194 C10.0006428,11.2990194 10.0006428,11.3120492 9.99887514,11.3481193 L9.99887514,26.8837149 L9.92431303,26.8837149 L9.92431303,26.8843505 L0,26.8843505 L0,38 L10.1463924,38 C11.4409449,37.9534425 21.1365901,37.2662025 21.3070866,27.0523072 L21.3070866,11.3457359 L32,11.3457359 L32,0 L21.3154427,0 Z" id="Fill-1" fill="#EC1C2D"></path>
                    <polygon id="Fill-3" fill="#000000" points="53 38 53 18 57.4631859 18 57.4631859 26.3307245 68.0248341 18 74.4492641 18 61.8238683 27.4184987 76 38 68.8732069 38 57.4631859 29.1996823 57.4631859 38"></polygon>
                    <polygon id="Fill-5" fill="#000000" points="78 38 78 18 96.8220923 18 96.8220923 21.4162714 82.2736036 21.4162714 82.2736036 25.865025 96.7695793 25.865025 96.7695793 29.2808292 82.2736036 29.2808292 82.2736036 34.246369 97 34.246369 97 38"></polygon>
                    <path d="M101,38 L101,18 L103.972212,18 L117.129667,29.7831305 C118.071657,30.6357187 118.785389,31.3588767 119.268113,31.9538506 C119.144844,30.0929218 119.083047,28.9436254 119.083047,28.5036251 L119.083047,18 L123,18 L123,38 L120.027626,38 L106.290062,25.6354461 C105.709791,25.1192829 105.190345,24.5758631 104.731725,24.0075228 C104.855156,25.2999556 104.916953,26.3595387 104.916953,27.186272 L104.916953,38 L101,38 Z" id="Fill-7" fill="#000000"></path>
                    <path d="M133.397333,34.246369 L139.085688,34.246369 C141.996996,34.246369 144.088992,33.7945315 145.361348,32.8905451 C146.755521,31.9088382 147.452525,30.2167449 147.452525,27.8141096 C147.452525,23.6552111 145.3733,21.5752946 141.213869,21.5752946 L133.397333,21.5752946 L133.397333,34.246369 Z M129,38 L129,18 L141.178339,18 C144.675477,18 147.353795,18.8661387 149.211982,20.5968585 C151.07017,22.3282013 152,24.7573145 152,27.8838866 C152,29.8739341 151.57217,31.68253 150.715527,33.3102976 C149.786679,35.0153182 148.491401,36.2435811 146.828054,36.992594 C145.311737,37.6643537 143.049297,38 140.04188,38 L129,38 Z" id="Fill-9" fill="#000000"></path>
                    <polygon id="Fill-11" fill="#000000" points="155 38 155 18 173.821935 18 173.821935 21.4162714 159.273727 21.4162714 159.273727 25.865025 173.785972 25.865025 173.785972 29.2808292 159.273727 29.2808292 159.273727 34.246369 174 34.246369 174 38"></polygon>
                    <path d="M191.951779,21.4556768 L182.236041,21.4556768 L182.236041,27.0169692 L191.951779,27.0169692 C192.623441,27.0169692 193.091758,26.9398718 193.355447,26.785054 C193.714309,26.552983 193.894702,26.1025473 193.894702,25.4331238 L193.894702,23.0385876 C193.894702,22.3699429 193.714309,21.919663 193.355447,21.687592 C193.091758,21.5327742 192.623441,21.4556768 191.951779,21.4556768 Z M178,38 L178,18 L193.888122,18 C196.667372,18 198.057879,19.2914983 198.057879,21.873093 L198.057879,26.5593689 C198.057879,29.1418982 196.667372,30.4326177 193.888122,30.4326177 L191.443018,30.4326177 L200,38 L193.816221,38 L186.336305,30.4326177 L182.236041,30.4326177 L182.236041,38 L178,38 Z" id="Fill-13" fill="#000000"></path>
                    <path d="M46.9940393,26.7549356 C46.3236165,26.1088448 45.0855864,25.7851764 43.2804386,25.7851764 L31.5000583,25.7851764 L31.5000583,21.4952454 L47.6879629,21.4703239 C47.5893905,20.2261162 47.2714782,19.4473182 46.6953846,18.9320655 C46.000645,18.3107404 44.7885636,18 43.0566923,18 L32.3418404,18 C30.5368558,18 29.3063329,18.3227339 28.6476604,18.9682017 C27.9891511,19.6135137 27.6601413,20.8658209 27.6601413,22.7251232 L27.6601413,24.9327041 C27.6601413,26.7918507 27.9899671,28.0449366 28.6476604,28.6905602 C29.3063329,29.3358722 30.5384878,29.6586061 32.3434724,29.6586061 L44.1232,29.6586061 L44.1232,34.2465051 L27,34.2584986 C27.094982,35.6263794 27.3539793,36.4989447 27.9093467,37.0327329 C28.5796063,37.6774219 29.8160044,38 31.619357,38 L43.2822338,38 C45.0870552,38 46.3236165,37.6774219 46.9948553,37.0303965 C47.665115,36.3841499 48,35.1309082 48,33.2694252 L48,30.5159069 C48,28.655047 47.665115,27.4011822 46.9940393,26.7549356" id="Fill-15" fill="#000000"></path>
                </g>
                <text id="construction" font-family=".AppleSystemUIFont" font-size="12" font-weight="normal" letter-spacing="1.39999998" fill="#6D6D6D">
                    <tspan x="98" y="55">constructio</tspan>
                    <tspan x="177.601172" y="55">n</tspan>
                </text>
            </g>
        </g>
    </g>
</svg>