<?xml version="1.0" encoding="UTF-8"?>
<svg width="18px" height="17px" viewBox="0 0 18 17" version="1.1" xmlns="http://www.w3.org/2000/svg" xmlns:xlink="http://www.w3.org/1999/xlink">
    <!-- Generator: Sketch 48.1 (47250) - http://www.bohemiancoding.com/sketch -->
    <title>Fill 1 Copy</title>
    <desc>Created with Sketch.</desc>
    <defs></defs>
    <g id="Home-1-Final" stroke="none" stroke-width="1" fill="none" fill-rule="evenodd" transform="translate(-882.000000, -4600.000000)">
        <g id="Group-21" transform="translate(0.000000, 4537.000000)" fill="#EEEEEE">
            <g id="Group-20" transform="translate(520.000000, 50.000000)">
                <g id="Group-9" transform="translate(20.000000, 11.000000)">
                    <path d="M359.316473,9.78868812 L344.333561,9.78868812 L350.64853,3.21475084 C350.915653,2.93692271 350.915653,2.48630599 350.64853,2.20847786 C350.381408,1.93064973 349.948872,1.93036507 349.682023,2.20847786 L342.200684,9.99677456 C342.194668,10.0030371 342.190021,10.0112922 342.184005,10.0178394 C342.159672,10.0451668 342.136159,10.0727788 342.1162,10.1038067 C342.107177,10.1180397 342.100889,10.133696 342.09296,10.1482137 C342.079016,10.1738331 342.064252,10.1988831 342.053042,10.2259258 C342.045933,10.2438594 342.042105,10.2632163 342.036364,10.2814345 C342.028435,10.3070539 342.019139,10.332104 342.013671,10.3585774 C342.004921,10.4046923 342,10.4519458 342,10.4994841 L342,10.4997687 C342,10.5051773 342.001367,10.5100165 342.00164,10.5157097 C342.002461,10.5575547 342.005742,10.5993997 342.013671,10.6403907 C342.020506,10.6762579 342.031989,10.7104171 342.044019,10.7442916 C342.0473,10.7536854 342.048941,10.7633639 342.052495,10.7730423 C342.068353,10.8128947 342.088312,10.8501851 342.110458,10.8860523 C342.112372,10.8888989 342.113465,10.8920302 342.115106,10.8945921 C342.140807,10.9344445 342.169788,10.9714503 342.202324,11.0050402 L349.681203,18.7916289 C349.814627,18.930543 349.98961,19 350.164593,19 C350.339576,19 350.514286,18.930543 350.647984,18.7916289 C350.915106,18.5135161 350.915106,18.063184 350.647984,17.7853559 L344.334108,11.211988 L359.316473,11.211988 C359.694053,11.211988 360,10.8934535 360,10.500338 C360,10.1072226 359.694053,9.78868812 359.316473,9.78868812" id="Fill-1-Copy" transform="translate(351.000000, 10.500000) rotate(-180.000000) translate(-351.000000, -10.500000) "></path>
                </g>
            </g>
        </g>
    </g>
</svg>