<?xml version="1.0" encoding="utf-8"?>
<!-- Generator: Adobe Illustrator 22.0.1, SVG Export Plug-In . SVG Version: 6.00 Build 0)  -->
<svg version="1.1" id="Layer_1" xmlns="http://www.w3.org/2000/svg" xmlns:xlink="http://www.w3.org/1999/xlink" x="0px" y="0px"
	 viewBox="0 0 1302.1 344" style="enable-background:new 0 0 1302.1 344;" xml:space="preserve">
<style type="text/css">
	.st0{clip-path:url(#SVGID_2_);}
	.st1{fill:#A7A9AB;}
	.st2{clip-path:url(#SVGID_4_);}
	.st3{clip-path:url(#SVGID_6_);}
	.st4{clip-path:url(#SVGID_8_);}
	.st5{fill:#EC1C2D;}
	.st6{clip-path:url(#SVGID_10_);}
	.st7{fill:#231F20;}
</style>
<title>Artboard 1</title>
<g>
	<defs>
		<rect id="SVGID_1_" width="1302.1" height="344"/>
	</defs>
	<clipPath id="SVGID_2_">
		<use xlink:href="#SVGID_1_"  style="overflow:visible;"/>
	</clipPath>
	<g class="st0">
		<path class="st1" d="M674.6,344c-5.5,0.1-10.8-2.1-14.7-6c-5.5-5.5-5.4-12.3-5.4-21.8s-0.2-16.2,5.4-21.7c3.9-3.9,9.2-6.1,14.7-6
			c10.2,0,18.2,5.8,20.1,17.2h-10.8c-1.1-4.4-3.8-7.7-9.2-7.7c-2.6-0.1-5.1,0.9-6.8,2.8c-2.1,2.3-2.7,4.9-2.7,15.4
			s0.6,13.1,2.7,15.4c1.7,1.9,4.2,2.9,6.8,2.8c5.4,0,8.1-3.4,9.2-7.7h10.8C692.8,338.2,684.7,344,674.6,344"/>
		<path class="st1" d="M852.1,310.9c-9.8-2.1-8.8-7.8-7.2-10c1.4-1.9,3.9-2.8,6.8-2.8c5.4,0,8.1,3.4,9.2,7.7h10.8
			c-1.9-11.4-9.9-17.2-20.1-17.2c-10.5,0-18,5.3-18.5,15s7.8,14.3,14.6,16c7.1,1.8,13.2,2.5,13.2,7.4c0,6-5.2,7.5-9.3,7.5
			c-4.5,0-8.4-3.3-9.3-7.7h-10.8c1.6,9.7,8.6,17.2,20.1,17.2c10.2,0,20.1-7.2,20.1-17C871.7,315.9,861.8,313,852.1,310.9"/>
		<path class="st1" d="M738.1,301c-1.7-1.9-4.2-3-6.8-2.9c-2.6-0.1-5.1,1-6.9,2.9c-2.1,2.3-2.6,4.8-2.6,15.3s0.5,13,2.6,15.3
			c1.8,1.9,4.3,3,6.9,2.9c2.6,0.1,5.1-1,6.8-2.9c2.1-2.3,2.7-4.8,2.7-15.3S740.2,303.3,738.1,301 M746,338.1c-8.2,8-21.3,8-29.5,0
			c-5.5-5.5-5.4-12.3-5.4-21.8s-0.2-16.2,5.4-21.7c8.2-8,21.3-8,29.5,0c5.5,5.5,5.4,12.3,5.4,21.7S751.5,332.5,746,338.1"/>
	</g>
</g>
<polygon class="st1" points="802.5,289 802.5,322.4 780.9,289 771.4,289 771.4,343.6 782.1,343.6 782.1,310.1 803.7,343.6 
	813.2,343.6 813.2,289 "/>
<polygon class="st1" points="885.3,289 885.3,298.5 899.5,298.5 899.5,343.6 910.2,343.6 910.2,298.5 924.4,298.5 924.4,289 "/>
<g>
	<defs>
		<rect id="SVGID_3_" width="1302.1" height="344"/>
	</defs>
	<clipPath id="SVGID_4_">
		<use xlink:href="#SVGID_3_"  style="overflow:visible;"/>
	</clipPath>
	<g class="st2">
		<path class="st1" d="M962.8,298.5h-10v14.4h10c4.7,0,7.7-3,7.7-7.2S967.5,298.5,962.8,298.5 M971.1,343.5l-10.6-21.7h-7.7v21.7
			h-10.6V289h21.4c11.1,0,17.7,7.6,17.7,16.7c0.2,6.5-3.9,12.3-10,14.3l12.2,23.5H971.1z"/>
		<path class="st1" d="M1020.6,344c-11.2,0-20.1-7.6-20.1-19.1V289h10.6v35.5c0,6.3,3.7,10,9.4,10s9.5-3.8,9.5-10V289h10.6v35.8
			C1040.6,336.4,1031.7,344,1020.6,344"/>
		<path class="st1" d="M1079.8,344c-5.5,0.1-10.8-2.1-14.7-6c-5.5-5.5-5.4-12.3-5.4-21.8s-0.2-16.2,5.4-21.7c3.9-3.9,9.2-6.1,14.7-6
			c10.2,0,18.2,5.8,20.1,17.2h-10.8c-1.1-4.4-3.8-7.7-9.2-7.7c-2.6-0.1-5.1,0.9-6.8,2.8c-2.1,2.3-2.7,4.9-2.7,15.4
			s0.6,13.1,2.7,15.4c1.7,1.9,4.2,2.9,6.8,2.8c5.4,0,8.1-3.4,9.2-7.7h10.8C1098,338.2,1089.9,344,1079.8,344"/>
	</g>
</g>
<polygon class="st1" points="1112.6,289 1112.6,298.5 1126.8,298.5 1126.8,343.6 1137.5,343.6 1137.5,298.5 1151.7,298.5 
	1151.7,289 "/>
<rect x="1169.5" y="289" class="st1" width="10.6" height="54.5"/>
<g>
	<defs>
		<rect id="SVGID_5_" width="1302.1" height="344"/>
	</defs>
	<clipPath id="SVGID_6_">
		<use xlink:href="#SVGID_5_"  style="overflow:visible;"/>
	</clipPath>
	<g class="st3">
		<path class="st1" d="M1227.1,301c-1.7-1.9-4.2-3-6.8-2.9c-2.6-0.1-5.1,1-6.9,2.9c-2.1,2.3-2.6,4.8-2.6,15.3s0.5,13,2.6,15.3
			c1.8,1.9,4.3,3,6.9,2.9c2.6,0.1,5.1-1,6.8-2.9c2.1-2.3,2.7-4.8,2.7-15.3S1229.2,303.3,1227.1,301 M1235,338.1
			c-8.2,8-21.3,8-29.5,0c-5.5-5.5-5.4-12.3-5.4-21.8s-0.2-16.2,5.4-21.7c8.2-8,21.3-8,29.5,0c5.5,5.5,5.4,12.3,5.4,21.7
			S1240.5,332.5,1235,338.1"/>
	</g>
</g>
<polygon class="st1" points="1291.5,289 1291.5,322.4 1269.9,289 1260.4,289 1260.4,343.6 1271,343.6 1271,310.1 1292.6,343.6 
	1302.1,343.6 1302.1,289 "/>
<g>
	<defs>
		<rect id="SVGID_7_" width="1302.1" height="344"/>
	</defs>
	<clipPath id="SVGID_8_">
		<use xlink:href="#SVGID_7_"  style="overflow:visible;"/>
	</clipPath>
	<g class="st4">
		<path class="st5" d="M72.9,250.5H0v-71h73.2V71.3C73.2,31.9,105.1,0,144.5,0h72.9v71h-73.2v108.3
			C144.2,218.6,112.3,250.5,72.9,250.5"/>
		<path d="M322,145.2V120H217.2c-13.9,0-25.1,11.2-25.1,25.1c0,0,0,0,0,0v27.3c0,13.9,11.2,25.1,25.1,25.1h0h82.5v27.4H192.1v25.2
			h107.7c13.9,0,25.1-11.2,25.1-25.1v0v-27.4c0-13.9-11.2-25.1-25.1-25.1h0h-82.5v-27.3H322z"/>
		<path d="M945.2,191.4c0,18.5-15,33.4-33.5,33.5h-55.8v-79.7h55.8c18.5,0,33.4,15,33.5,33.5V191.4z M911.8,120h-81v130.1h81
			c32.4,0,58.6-26.3,58.6-58.6v-12.8C970.4,146.3,944.1,120,911.8,120"/>
	</g>
</g>
<polygon points="1116.1,145.2 1116.1,120 996.7,120 996.7,250.1 1116.1,250.1 1116.1,224.9 1021.9,224.9 1021.9,197.5 1113.8,197.5 
	1113.8,172.3 1021.9,172.3 1021.9,145.2 "/>
<polygon points="489.6,120 449.7,120 380.7,171.9 380.7,120 355.5,120 355.5,250.1 380.7,250.1 380.7,198.2 449.7,250.1 
	489.6,250.1 403.1,184.9 "/>
<g>
	<defs>
		<rect id="SVGID_9_" width="1302.1" height="344"/>
	</defs>
	<clipPath id="SVGID_10_">
		<use xlink:href="#SVGID_9_"  style="overflow:visible;"/>
	</clipPath>
	<g class="st6">
		<path class="st7" d="M1175.5,145.2h83.4v27.1h-83.4V145.2z M1261.2,250.1h39.9l-64.4-52.6h22.2c13.9,0,25.2-11.3,25.2-25.2v-27.1
			c0-13.9-11.3-25.2-25.2-25.2h-108.6v130.1h25.2v-52.6h21.3L1261.2,250.1z"/>
	</g>
</g>
<polygon points="772.3,120 772.3,213.9 684.5,120 659.3,120 659.3,250.1 684.5,250.1 684.5,156.1 772.3,250.1 797.5,250.1 
	797.5,120 "/>
<polygon points="507.9,120 507.9,250.1 627.3,250.1 627.3,224.9 533.1,224.9 533.1,197.5 625,197.5 625,172.3 533.1,172.3 
	533.1,145.2 627.3,145.2 627.3,120 "/>
</svg>
